<?xml version="1.0" encoding="utf-8"?>
<!-- Generator: Adobe Illustrator 24.1.0, SVG Export Plug-In . SVG Version: 6.00 Build 0)  -->
<svg version="1.1"
	 id="svg14" xmlns:cc="http://creativecommons.org/ns#" xmlns:dc="http://purl.org/dc/elements/1.1/" xmlns:inkscape="http://www.inkscape.org/namespaces/inkscape" xmlns:rdf="http://www.w3.org/1999/02/22-rdf-syntax-ns#" xmlns:sodipodi="http://sodipodi.sourceforge.net/DTD/sodipodi-0.dtd" xmlns:svg="http://www.w3.org/2000/svg"
	 xmlns="http://www.w3.org/2000/svg" xmlns:xlink="http://www.w3.org/1999/xlink" x="0px" y="0px" viewBox="0 0 389 389"
	 style="enable-background:new 0 0 389 389;" xml:space="preserve">
<style type="text/css">
	.st0{fill:#FFFFFF;}
	.st1{fill:#0073A0;}
</style>
<sodipodi:namedview  bordercolor="#666666" borderopacity="1" gridtolerance="10" guidetolerance="10" id="namedview16" inkscape:current-layer="svg14" inkscape:cx="259.33333" inkscape:cy="259.33333" inkscape:pageopacity="0" inkscape:pageshadow="2" inkscape:window-height="1017" inkscape:window-maximized="1" inkscape:window-width="1920" inkscape:window-x="-8" inkscape:window-y="-8" inkscape:zoom="0.45501285" objecttolerance="10" pagecolor="#ffffff" showgrid="false">
	</sodipodi:namedview>
<path id="path2" class="st0" d="M64.8,235.2h53.5c3.8,0,6.8-3.1,6.8-6.8s-3.1-6.8-6.8-6.8H64.8c-28.2,0-51.2-23-51.2-51.2
	c0-26.3,19.7-48.2,45.8-50.9c2.1-0.2,4.1-1.4,5.2-3.3c1.1-1.9,1.3-4.1,0.4-6.1c-2.4-5.8-3.6-11.9-3.6-18.2
	c0-26.3,21.4-47.8,47.8-47.8c13.3,0,26.2,5.7,35.2,15.6c1.5,1.6,3.6,2.5,5.7,2.2c2.2-0.2,4.1-1.4,5.2-3.3
	c15.6-26.2,43-41.8,73.3-41.8c47,0,85.3,38.3,85.3,85.3c0,3-0.2,6.2-0.6,9.7c-0.2,2,0.7,4,2.1,5.5s3.6,2.2,5.7,2.1
	c1-0.1,2-0.1,3-0.1c28.2,0,51.2,23,51.2,51.2s-23,51.2-51.2,51.2h-78.5c-3.8,0-6.8,3.1-6.8,6.8s3.1,6.8,6.8,6.8h78.5
	c35.8,0,64.8-29.1,64.8-64.8c0-34.6-27.3-63-61.5-64.7c0-1.2,0.1-2.4,0.1-3.5c0-54.6-44.4-99-99-99c-31.8,0-61.9,15.7-80.4,41.4
	c-10.9-9-24.8-14.1-39.1-14.1c-33.9,0-61.4,27.6-61.4,61.4c0,5.2,0.7,10.4,2,15.4C20.9,114.1,0,139.9,0,170.3
	C0,206.1,29.1,235.2,64.8,235.2z"/>
<path id="path4" class="st0" d="M177.4,330.7c3.8,0,6.8-3.1,6.8-6.8V146.4h55.6c3.1,11.7,13.6,20.5,26.3,20.5
	c15.1,0,27.3-12.2,27.3-27.3c0-15.1-12.2-27.3-27.3-27.3c-12.7,0-23.3,8.7-26.3,20.5h-62.4c-3.8,0-6.8,3.1-6.8,6.8V317H34.1v-21.4
	c11.7-3,20.5-13.6,20.5-26.3c0-15.1-12.2-27.3-27.3-27.3C12.2,242,0,254.2,0,269.3c0,12.7,8.7,23.3,20.5,26.3v28.3
	c0,3.8,3.1,6.8,6.8,6.8H177.4z M266.2,126c7.5,0,13.7,6.1,13.7,13.6c0,7.5-6.1,13.6-13.7,13.6c-7.5,0-13.6-6.1-13.6-13.6
	C252.5,132.1,258.6,126,266.2,126z M13.6,269.3c0-7.5,6.1-13.6,13.7-13.6c7.5,0,13.6,6.1,13.6,13.6c0,7.5-6.1,13.6-13.6,13.6
	C19.8,282.9,13.6,276.8,13.6,269.3z"/>
<path id="path6" class="st1" d="M102.4,269.3c-3.8,0-6.8,3.1-6.8,6.8c0,3.8,3.1,6.8,6.8,6.8h47.8c3.8,0,6.8-3.1,6.8-6.8v-81.9
	c0-1.6-0.6-3.1-1.6-4.4L125.5,154c2.6-4.2,4.2-9.1,4.2-14.4c0-15.1-12.2-27.3-27.3-27.3c-15.1,0-27.3,12.2-27.3,27.3
	c0,15.1,12.2,27.3,27.3,27.3c4.8,0,9.3-1.4,13.2-3.5l27.8,33.3v72.6H102.4z M88.7,139.6c0-7.5,6.1-13.6,13.6-13.6
	c7.5,0,13.7,6.1,13.7,13.6c0,2.6-0.8,5.1-2.1,7.2c-0.8,0.3-1.6,0.7-2.3,1.2c-1,0.8-1.6,1.9-2,3.1c-2.1,1.3-4.6,2.2-7.3,2.2
	C94.8,153.3,88.7,147.1,88.7,139.6z"/>
<path id="path8" class="st1" d="M368.5,269.3H225.2v-55.6c11.7-3.1,20.5-13.6,20.5-26.3c0-15.1-12.3-27.3-27.3-27.3
	s-27.3,12.2-27.3,27.3c0,12.7,8.7,23.3,20.5,26.3v62.4c0,3.8,3.1,6.8,6.8,6.8h150.1c3.8,0,6.8-3.1,6.8-6.8
	C375.3,272.3,372.3,269.3,368.5,269.3z M204.7,187.4c0-7.5,6.1-13.6,13.6-13.6s13.6,6.1,13.6,13.6c0,7.5-6.1,13.7-13.6,13.7
	S204.7,194.9,204.7,187.4z"/>
<path id="path10" class="st0" d="M361.7,351.2h-50.6l-25.3-44.3c-1.2-2.1-3.5-3.4-5.9-3.4h-61.4c-3.8,0-6.8,3.1-6.8,6.8
	c0,3.8,3.1,6.8,6.8,6.8h57.5l25.3,44.3c1.2,2.1,3.5,3.4,5.9,3.4h54.6c3.8,0,6.8-3.1,6.8-6.8S365.5,351.2,361.7,351.2z"/>
<path id="path12" class="st1" d="M273,351.2h-21.4c-3.1-11.7-13.6-20.5-26.3-20.5c-12.7,0-23.3,8.7-26.3,20.5H34.1
	c-3.8,0-6.8,3.1-6.8,6.8s3.1,6.8,6.8,6.8h164.8c3.1,11.7,13.6,20.5,26.3,20.5c12.7,0,23.3-8.7,26.3-20.5H273c3.8,0,6.8-3.1,6.8-6.8
	S276.8,351.2,273,351.2z M225.2,371.6c-7.5,0-13.7-6.1-13.7-13.6s6.1-13.6,13.7-13.6c7.5,0,13.6,6.1,13.6,13.6
	S232.7,371.6,225.2,371.6z"/>
</svg>
