<?xml version="1.0" encoding="utf-8"?>
<!-- Generator: Adobe Illustrator 24.1.0, SVG Export Plug-In . SVG Version: 6.00 Build 0)  -->
<svg version="1.1"
	 id="Capa_1" xmlns:cc="http://creativecommons.org/ns#" xmlns:dc="http://purl.org/dc/elements/1.1/" xmlns:inkscape="http://www.inkscape.org/namespaces/inkscape" xmlns:rdf="http://www.w3.org/1999/02/22-rdf-syntax-ns#" xmlns:sodipodi="http://sodipodi.sourceforge.net/DTD/sodipodi-0.dtd" xmlns:svg="http://www.w3.org/2000/svg"
	 xmlns="http://www.w3.org/2000/svg" xmlns:xlink="http://www.w3.org/1999/xlink" x="0px" y="0px" viewBox="0 0 31.6 31.6"
	 style="enable-background:new 0 0 31.6 31.6;" xml:space="preserve">
<style type="text/css">
	.st0{fill:#FFFFFF;}
	.st1{fill:#0073A0;}
</style>
<sodipodi:namedview  bordercolor="#666666" borderopacity="1" gridtolerance="10" guidetolerance="10" id="namedview71" inkscape:current-layer="Capa_1" inkscape:cx="15.793" inkscape:cy="15.793" inkscape:pageopacity="0" inkscape:pageshadow="2" inkscape:window-height="480" inkscape:window-maximized="0" inkscape:window-width="760" inkscape:window-x="0" inkscape:window-y="0" inkscape:zoom="7.4716646" objecttolerance="10" pagecolor="#ffffff" showgrid="false">
	</sodipodi:namedview>
<g id="g38">
	<path id="path2" class="st0" d="M29.3,2.3H2.3C1,2.3,0,3.3,0,4.5v22.6c0,1.2,1,2.3,2.3,2.3h27.1c1.2,0,2.3-1,2.3-2.3V4.5
		C31.6,3.3,30.6,2.3,29.3,2.3z M7.3,3.9c0.6,0,1.1,0.5,1.1,1.1c0,0.6-0.5,1.1-1.1,1.1c-0.6,0-1.1-0.5-1.1-1.1
		C6.2,4.5,6.7,3.9,7.3,3.9z M3.9,3.9c0.6,0,1.1,0.5,1.1,1.1c0,0.6-0.5,1.1-1.1,1.1c-0.6,0-1.1-0.5-1.1-1.1C2.8,4.5,3.3,3.9,3.9,3.9z
		 M29.3,27.1H2.3V7.9h27.1C29.3,7.9,29.3,27.1,29.3,27.1z"/>
	<polygon id="polygon4" class="st1" points="12.6,12.6 5.4,9.2 5.4,10.8 11,13.2 11,13.3 5.4,15.7 5.4,17.3 12.6,13.9 	"/>
	<rect id="rect6" x="16.1" y="12.5" class="st1" width="3.9" height="1.5"/>
	<g id="g8">
	</g>
	<g id="g10">
	</g>
	<g id="g12">
	</g>
	<g id="g14">
	</g>
	<g id="g16">
	</g>
	<g id="g18">
	</g>
	<g id="g20">
	</g>
	<g id="g22">
	</g>
	<g id="g24">
	</g>
	<g id="g26">
	</g>
	<g id="g28">
	</g>
	<g id="g30">
	</g>
	<g id="g32">
	</g>
	<g id="g34">
	</g>
	<g id="g36">
	</g>
</g>
<g id="g40">
</g>
<g id="g42">
</g>
<g id="g44">
</g>
<g id="g46">
</g>
<g id="g48">
</g>
<g id="g50">
</g>
<g id="g52">
</g>
<g id="g54">
</g>
<g id="g56">
</g>
<g id="g58">
</g>
<g id="g60">
</g>
<g id="g62">
</g>
<g id="g64">
</g>
<g id="g66">
</g>
<g id="g68">
</g>
</svg>
